<svg width="51" height="51" viewBox="0 0 51 51" fill="none" xmlns="http://www.w3.org/2000/svg">
<g clip-path="url(#clip0_233_743)">
<path d="M23.8149 15.0832H27.9816V19.2498H23.8149V15.0832ZM23.8149 23.4165H27.9816V35.9165H23.8149V23.4165ZM25.8983 4.6665C14.3983 4.6665 5.06494 13.9998 5.06494 25.4998C5.06494 36.9998 14.3983 46.3332 25.8983 46.3332C37.3983 46.3332 46.7316 36.9998 46.7316 25.4998C46.7316 13.9998 37.3983 4.6665 25.8983 4.6665ZM25.8983 42.1665C16.7108 42.1665 9.23161 34.6873 9.23161 25.4998C9.23161 16.3123 16.7108 8.83317 25.8983 8.83317C35.0858 8.83317 42.5649 16.3123 42.5649 25.4998C42.5649 34.6873 35.0858 42.1665 25.8983 42.1665Z" fill="black"/>
</g>
<defs>
<clipPath id="clip0_233_743">
<rect width="50" height="50" fill="white" transform="translate(0.898438 0.5)"/>
</clipPath>
</defs>
</svg>
