<svg width="50" height="51" viewBox="0 0 50 51" fill="none" xmlns="http://www.w3.org/2000/svg">
<g clip-path="url(#clip0_233_736)">
<path d="M25.0002 46.3335C27.2918 46.3335 29.1668 44.4585 29.1668 42.1668H20.8335C20.8335 44.4585 22.7085 46.3335 25.0002 46.3335ZM37.5002 33.8335V23.4168C37.5002 17.021 34.1043 11.6668 28.1252 10.2502V8.8335C28.1252 7.10433 26.7293 5.7085 25.0002 5.7085C23.271 5.7085 21.8752 7.10433 21.8752 8.8335V10.2502C15.9168 11.6668 12.5002 17.0002 12.5002 23.4168V33.8335L8.3335 38.0002V40.0835H41.6668V38.0002L37.5002 33.8335ZM33.3335 35.9168H16.6668V23.4168C16.6668 18.2502 19.8127 14.0418 25.0002 14.0418C30.1877 14.0418 33.3335 18.2502 33.3335 23.4168V35.9168Z" fill="black"/>
</g>
<defs>
<clipPath id="clip0_233_736">
<rect width="50" height="50" fill="white" transform="translate(0 0.5)"/>
</clipPath>
</defs>
</svg>
