<svg width="69" height="150" viewBox="0 0 69 150" fill="none" xmlns="http://www.w3.org/2000/svg">
<mask id="mask0_233_892" style="mask-type:luminance" maskUnits="userSpaceOnUse" x="0" y="0" width="68" height="150">
<path d="M0 0H67.7422V150H0V0Z" fill="white"/>
</mask>
<g mask="url(#mask0_233_892)">
<path d="M23.4922 93.9922L9.60156 94.4766L2.875 44.0547L14.0312 43.6641C14.8594 55.125 16.2422 72.125 17 83.4922L19.2812 83.4062C22.6172 72.3984 29.8984 54.0781 33.9219 42.9609L46.8906 42.5234C38.875 59.6641 31.0781 76.9141 23.5 94.25L23.4922 93.9922ZM14.0078 122.344C33.1094 82.1172 51.3672 41.4531 67.6094 0C60.8047 13.2031 54.3906 26.5937 48.0625 40.0234V39.9688L32.1328 40.5156C29.0703 48.9375 21.8437 67.7266 19.0156 76.0156C18.4687 68.0938 16.9453 49.1641 16.3828 41.0703L0 41.6484L7.39062 97.0703L22.5 96.5312C14.8125 114.234 7.26562 132 0.320312 150C5.04687 140.859 9.55469 131.617 14.0078 122.344Z" fill="white"/>
</g>
<mask id="mask1_233_892" style="mask-type:luminance" maskUnits="userSpaceOnUse" x="20" y="62" width="49" height="56">
<path d="M20.7031 62.4375H68.8984V118H20.7031V62.4375Z" fill="white"/>
</mask>
<g mask="url(#mask1_233_892)">
<path d="M67.9844 66.8829C61.5 62.6719 51.375 61.4141 43.9922 63.6797L44.7578 66.0704C49.8906 63.7891 62.5469 65.9454 65.6172 68.3516L61.4609 76.3985C58.9219 74.6719 51.0391 72.3672 47.5156 74.5626C44.1016 76.2579 43.8594 80.5938 46.2344 82.9141C48.9297 86.0704 55.1328 90.1016 56.8125 93.8907C59.4375 98.4141 58.0937 104.32 55.5 108.281C49.4453 118.227 31.5 116.211 24.0625 111.594L27.8984 103.336C31.7656 105.57 36.8516 107.328 41.4141 106.773C46.2344 106.266 48.5625 100.945 45.375 97.1876C42.8437 94.1954 36.6562 89.9844 35.0781 86.6094L32.8828 87.8751C34.4766 91.3282 40.6562 95.7266 43.3672 98.7266C44.6641 100.266 44.6562 102.313 43.1406 103.477C38.4297 106.102 30.7812 102.516 26.8516 99.586L20.8594 112.484C33.7187 121.508 58.4453 120.523 60.6641 101.289C62.2422 88.3126 48.3672 85.1876 47.1641 78.9141C47.9531 73.3751 59.9922 77.7501 61.2422 79.2188L62.4375 80.0391L68.8984 67.5079L67.9844 66.8829Z" fill="white"/>
</g>
<path d="M20.8438 120.344C16.2344 128.859 12.1562 137.711 9.21094 146.93C12.1328 142.219 14.5859 137.227 16.8984 132.195C19.1719 127.148 21.3281 122.031 22.9609 116.742C22.2109 117.922 21.5234 119.125 20.8438 120.344Z" fill="white"/>
<path d="M45.375 34.625C49.9844 26.1094 54.0547 17.25 57.0078 8.03125C54.0859 12.75 51.6406 17.7344 49.3203 22.7656C47.0469 27.8125 44.8906 32.9297 43.2578 38.2188C44.0078 37.0469 44.6953 35.8359 45.375 34.625Z" fill="white"/>
</svg>
